PathFileType	4	(X/Y/Z)	C:\MyCloud\GitHub\OpenSimScripting\Matlab\Data\Gait2354_Simbody\Hip_Kinetic_SLOW_Crop_Marker.trc	
DataRate	CameraRate	NumFrames	NumMarkers	Units	OrigDataRate	OrigDataStartFrame	OrigNumFrames
100	100	7	34	mm	100	2141	1050
Frame#	Time	Torso2			Torso3			Torso4			Hip1			Hip2			LThigh1			LThigh2			LThigh3			LThigh4			RThigh1			RThigh2			RThigh3			RThigh4			RTibia1			RTibia2			RTibia3			RTibia4			LTibia1			LTibia2			LTibia3			LTibia4			LFoot1			LFoot2			LFoot3			LFoot4			RFoot1			RFoot2			RFoot3			RFoot4			C7			Torso5			C_31			C_32			C_33			
		X1	Y1	Z1	X2	Y2	Z2	X3	Y3	Z3	X4	Y4	Z4	X5	Y5	Z5	X6	Y6	Z6	X7	Y7	Z7	X8	Y8	Z8	X9	Y9	Z9	X10	Y10	Z10	X11	Y11	Z11	X12	Y12	Z12	X13	Y13	Z13	X14	Y14	Z14	X15	Y15	Z15	X16	Y16	Z16	X17	Y17	Z17	X18	Y18	Z18	X19	Y19	Z19	X20	Y20	Z20	X21	Y21	Z21	X22	Y22	Z22	X23	Y23	Z23	X24	Y24	Z24	X25	Y25	Z25	X26	Y26	Z26	X27	Y27	Z27	X28	Y28	Z28	X29	Y29	Z29	X30	Y30	Z30	X31	Y31	Z31	X32	Y32	Z32	X33	Y33	Z33	X34	Y34	Z34	

2141	1.32000	543.77618	-284.39490	-1144.39404	513.09796	-290.86993	-1084.21863	570.42212	-434.16312	-1194.70471	268.08298	-454.60498	-822.36188	245.18762	-140.01634	-852.94507	142.41338	-506.81982	-784.13507	126.45616	-535.49573	-398.59311	138.78195	-391.84479	-388.26736	234.93443	-485.55853	-654.51843	155.88528	-114.67509	-778.70709	128.90048	-97.40569	-397.52487	115.78858	-238.08183	-377.90247	207.61569	-143.08105	-487.01996	93.80537	-82.13093	-344.26999	43.05774	-94.40560	64.68926	85.41357	-182.59889	50.99599	154.20224	-118.18974	-308.88190	92.92056	-548.02112	-359.80215	27.68767	-548.80511	54.38306	79.29792	-465.17996	44.75164	146.76865	-516.91431	-310.79556	7.80721	-487.51620	29.41941	93.34007	-584.50677	165.15887	189.60233	-534.06305	198.03770	148.60895	-481.85864	173.15331	12.42995	-152.73750	30.57825	114.39458	-57.76616	152.38847	190.75153	-104.42961	197.51196	149.63609	-157.23343	182.30908	529.07642	-305.87534	-1325.61499	553.76147	-146.24368	-1209.81702	0.00000	0.00000	0.00000	0.00000	0.00000	0.00000	0.00000	0.00000	0.00000	
2142	1.33000	543.65979	-284.33817	-1144.72498	512.95502	-290.86929	-1084.47986	570.28668	-434.12976	-1195.16150	267.99442	-454.59137	-822.50684	245.10970	-140.01907	-853.02887	142.31232	-506.96964	-784.29272	126.43973	-535.39691	-398.57178	138.77347	-391.78918	-388.30481	234.91701	-485.55731	-654.52515	155.87222	-114.66640	-778.73022	128.88501	-97.40247	-397.56345	115.73317	-238.13509	-377.96078	207.50471	-143.15735	-487.09567	93.79908	-82.10673	-344.30124	43.04287	-94.38988	64.68584	85.35742	-182.54187	50.97307	154.09140	-118.19517	-308.90436	92.97468	-548.08710	-359.82898	27.70593	-548.83704	54.38389	79.25653	-465.14517	44.74587	146.72379	-516.90057	-310.86121	7.75858	-487.41757	29.36973	93.32802	-584.43896	165.13898	189.59694	-534.00726	198.01074	148.61122	-481.83923	173.14323	12.44504	-152.86101	30.53789	114.38857	-57.73143	152.34348	190.72604	-104.47142	197.45657	149.85391	-157.22995	182.07463	528.71295	-305.77426	-1325.91614	553.47498	-146.16463	-1210.16064	0.00000	0.00000	0.00000	0.00000	0.00000	0.00000	0.00000	0.00000	0.00000	
2143	1.34000	543.56348	-284.28973	-1145.04224	512.93805	-290.83954	-1084.67676	570.17371	-434.09274	-1195.60938	268.04468	-454.59906	-822.57281	245.07938	-139.98892	-853.10693	142.12453	-507.02499	-784.35950	126.47472	-535.42035	-398.62967	138.75659	-391.81583	-388.34808	235.02287	-485.55609	-654.53253	155.88275	-114.65730	-778.76581	128.86954	-97.41808	-397.59903	115.73582	-238.19534	-377.99576	207.53079	-143.12665	-487.05655	93.78617	-82.11868	-344.34665	43.03572	-94.40668	64.64210	85.23479	-182.51457	50.94833	154.10927	-118.16489	-308.93646	92.94102	-548.01819	-359.84473	27.75289	-548.77295	54.41599	79.27852	-465.12823	44.70119	146.78145	-516.84003	-310.84543	7.84187	-487.44177	29.37825	93.26279	-584.41022	165.12305	189.61362	-533.95190	197.95863	148.60216	-481.80212	173.08713	12.27244	-152.64760	30.62242	114.43125	-57.75058	152.28659	190.75473	-104.50348	197.40913	149.80673	-157.21355	182.06181	528.40253	-305.67950	-1326.22827	553.30164	-146.12715	-1210.49207	0.00000	0.00000	0.00000	0.00000	0.00000	0.00000	0.00000	0.00000	0.00000	
2144	1.35000	543.60065	-284.27850	-1145.32178	512.93420	-290.88116	-1084.91150	570.16522	-434.05777	-1195.94592	268.18546	-454.48984	-822.64520	245.08691	-140.07455	-853.14966	142.17957	-506.91623	-784.39325	126.47208	-535.41840	-398.61795	138.80444	-391.73383	-388.34915	235.09804	-485.54651	-654.58978	155.89708	-114.72015	-778.79681	128.88829	-97.44155	-397.62531	115.73122	-238.17932	-378.00513	207.57774	-143.17317	-487.07150	93.80949	-82.13756	-344.35690	43.10249	-94.42821	64.62467	85.39645	-182.58386	50.83276	154.15338	-118.20088	-308.96646	92.94692	-547.94171	-359.88297	27.71885	-548.80200	54.33162	79.28754	-465.08173	44.70406	146.80988	-516.82367	-310.86771	7.76192	-487.42191	29.34803	93.39934	-584.43335	165.08588	189.65797	-533.86646	197.87459	148.62883	-481.72913	173.05550	12.30529	-152.65117	30.55749	114.52595	-57.81792	152.27711	190.83783	-104.49708	197.36232	149.66312	-157.27640	182.20195	528.23230	-305.78848	-1326.60156	553.18860	-146.13393	-1210.78406	0.00000	0.00000	0.00000	0.00000	0.00000	0.00000	0.00000	0.00000	0.00000	
2145	1.36000	543.56097	-284.22479	-1145.62769	512.91315	-290.97406	-1085.18665	570.10889	-433.99878	-1196.25085	268.09003	-454.54523	-822.86499	245.06828	-140.07773	-853.26709	142.24190	-506.92432	-784.40179	126.68182	-535.28687	-398.70709	138.78384	-391.69919	-388.43390	235.07066	-485.60019	-654.66748	155.85683	-114.76792	-778.85126	128.88832	-97.45093	-397.69598	115.75781	-238.17799	-378.04907	207.54784	-143.24368	-487.14313	93.81599	-82.15769	-344.41110	43.09265	-94.44456	64.58387	85.35571	-182.66882	50.82170	154.13382	-118.21041	-309.01382	93.01105	-548.03369	-359.90927	27.81582	-548.79840	54.29919	79.31346	-465.03986	44.63745	146.77077	-516.86182	-310.97296	7.70810	-487.44742	29.33417	93.63989	-584.34644	164.94810	189.70699	-533.76776	197.80002	148.68880	-481.64325	172.97227	12.30256	-152.66110	30.57927	114.45763	-57.91868	152.35489	190.87320	-104.55014	197.23549	149.73370	-157.32906	182.09781	528.00281	-305.70178	-1326.98413	553.00073	-146.11147	-1211.02917	0.00000	0.00000	0.00000	0.00000	0.00000	0.00000	0.00000	0.00000	0.00000	
2146	1.37000	543.48553	-284.12653	-1145.90308	512.91046	-290.83090	-1085.42456	570.08270	-433.89874	-1196.51062	268.09772	-454.54871	-823.05762	244.98714	-140.00275	-853.32196	142.21411	-506.92517	-784.50836	126.56573	-535.52374	-398.80197	138.77060	-391.68893	-388.50562	235.05237	-485.64981	-654.76685	155.87381	-114.69358	-778.92517	128.75858	-97.42944	-397.76563	115.74611	-238.15956	-378.07248	207.43256	-143.22583	-487.23462	93.73585	-82.15178	-344.43546	43.02342	-94.42033	64.51369	85.19518	-182.57732	50.71328	154.01633	-118.19594	-309.07837	92.97297	-548.01184	-359.96964	27.70212	-548.80933	54.24897	79.25285	-465.00491	44.56643	146.69742	-516.83661	-311.04440	7.74715	-487.46143	29.32699	93.59110	-584.22656	164.85916	189.70488	-533.64093	197.70428	148.66817	-481.55902	172.88487	12.22800	-152.66371	30.53481	114.51686	-57.81252	152.10382	190.86862	-104.55035	197.13463	149.65466	-157.26883	182.04597	528.07599	-305.10358	-1327.12842	552.83429	-146.03192	-1211.28333	0.00000	0.00000	0.00000	0.00000	0.00000	0.00000	0.00000	0.00000	0.00000	
2147	1.38000	543.55347	-284.11893	-1146.16003	513.04071	-290.76337	-1085.54883	570.16730	-433.88327	-1196.72656	268.34625	-454.50244	-823.07257	245.03058	-140.04779	-853.38666	142.13863	-506.93005	-784.59094	126.57351	-535.55872	-398.86197	138.82114	-391.74677	-388.58472	235.13849	-485.63132	-654.81268	155.90279	-114.73957	-778.97040	128.80415	-97.43356	-397.82266	115.78197	-238.17412	-378.18594	207.61710	-143.19626	-487.22507	93.80023	-82.15707	-344.50464	43.08261	-94.48951	64.47803	85.29715	-182.62392	50.61537	154.12640	-118.20164	-309.12341	92.92237	-547.91498	-359.99271	27.79416	-548.74933	54.21214	79.30460	-464.91278	44.52650	146.78786	-516.80835	-311.05273	7.68637	-487.39612	29.30361	93.68748	-584.19855	164.81531	189.77805	-533.57562	197.61444	148.71269	-481.50696	172.81404	12.08412	-152.40622	30.59965	114.64076	-57.84571	152.04231	190.99959	-104.58878	197.05174	149.70842	-157.29056	181.98579	527.96204	-305.15335	-1327.39160	552.87048	-145.99602	-1211.47473	0.00000	0.00000	0.00000	0.00000	0.00000	0.00000	0.00000	0.00000	0.00000	
